[Header]
FileType HTR
DataType HTRS
FileVersion 1
NumSegments 22
NumFrames 5
DataFrameRate 24
EulerRotationOrder ZYX
CalibrationUnits mm
RotationUnits Degrees
GlobalAxisofGravity Y
BoneLengthAxis Y
ScaleFactor 1.0
[SegmentNames&Hierarchy]
reference	GLOBAL
Hips	reference
Spine	Hips
Spine1	Spine
Neck	Spine1
Head	Neck
LeftShoulder	Spine1
LeftArm	LeftShoulder
LeftForeArm	LeftArm
LeftHand	LeftForeArm
RightShoulder	Spine1
RightArm	RightShoulder
RightForeArm	RightArm
RightHand	RightForeArm
LeftUpLeg	Hips
LeftLeg	LeftUpLeg
LeftFoot	LeftLeg
LeftToeBase	LeftFoot
RightUpLeg	Hips
RightLeg	RightUpLeg
RightFoot	RightLeg
RightToeBase	RightFoot
[BasePosition]
reference	0	0	0	0	0	0	1
Hips	0	0	0	0	0	0	1
Spine	0	0	0	0	-0	90	1
Spine1	0	0	0	0	0	0	1
Neck	0	0	0	-7.352327771	-7.352327771	90	1
Head	0	0	0	0	-0	90	1
LeftShoulder	0	0	0	0	0	0	1
LeftArm	0	0	0	0	0	0	1
LeftForeArm	0	0	0	0	0	0	1
LeftHand	0	0	0	0	0	0	1
RightShoulder	0	0	0	0	-0	180	1
RightArm	0	0	0	0	-0	180	1
RightForeArm	0	0	0	0	-0	180	1
RightHand	0	0	0	0	-0	180	1
LeftUpLeg	0	0	0	0	-0	-90	1
LeftLeg	0	0	0	0	-0	-90	1
LeftFoot	0	0	0	66.57146043	-66.57146043	-90	1
LeftToeBase	0	0	0	0	-90	0	1
RightUpLeg	0	0	0	0	-0	-90	1
RightLeg	0	0	0	0	-0	-90	1
RightFoot	0	0	0	66.57146043	-66.57146043	-90	1
RightToeBase	0	0	0	0	-90	0	1
[reference]
73	0	0	0	0	-0	0	1.0
74	0	0	0	0	-0	0	1.0
75	0	0	0	0	-0	0	1.0
76	0	0	0	0	-0	0	1.0
77	0	0	0	0	-0	0	1.0
[Hips]
73	-4.952459812	8.281482697	5.290054321	7.568820953	-66.86160278	-7.310434341	1.0
74	-5.217316628	8.369282722	5.440048218	6.023970127	-66.85534668	-5.364688396	1.0
75	-5.51803112	8.423082352	5.616535664	2.561179638	-68.18417358	-2.265684128	1.0
76	-5.787630081	8.404349327	5.758926868	7.521980286	-68.83776855	-6.127962112	1.0
77	-6.105490685	8.280266762	5.947162628	10.53986454	-70.09988403	-9.618083	1.0
[Spine]
73	0	0.7457100153	0	-6.304476261	-0.7394791842	-90.8109436	1.0
74	0	0.7457100153	0	-6.249437332	-1.101968884	-91.50962067	1.0
75	0	0.7457100153	0	-6.163743496	-0.7610229254	-92.66090393	1.0
76	0	0.7457100153	0	-6.280470848	-0.5423430204	-92.29768372	1.0
77	0	0.7457100153	0	-6.448087215	-0.3756390214	-90.59597015	1.0
[Spine1]
73	0	2.140589952	0	8.033842087	-0.3817691803	2.120699167	1.0
74	0	2.140589952	0	7.515795231	-0.3976504207	0.6088157892	1.0
75	0	2.140589952	0	6.918027401	-0.1159197986	1.113769889	1.0
76	0	2.140589952	0	5.445912361	-0.1615619659	0.9215785265	1.0
77	0	2.140589952	0	5.634002686	-0.1329764277	0.3802187443	1.0
[Neck]
73	0	2.32246995	0	-13.53994179	-11.51695728	-85.53006744	1.0
74	0	2.32246995	0	-13.69509125	-17.96602249	-84.0746994	1.0
75	0	2.32246995	0	-14.05549145	-23.94001007	-82.80047607	1.0
76	0	2.32246995	0	-14.52810764	-26.62298203	-82.41123199	1.0
77	0	2.32246995	0	-14.98419189	-28.72698593	-82.11834717	1.0
[Head]
73	0	1.409579992	0.1818799973	-5.204055786	0.004279287532	-96.93624115	1.0
74	0	1.409579992	0.1818799973	-5.884180069	0.02310792916	-96.89057922	1.0
75	0	1.409579992	0.1818799973	-5.772379398	0.3918685317	-98.44028473	1.0
76	0	1.409579992	0.1818799973	-4.650502205	0.7749577165	-97.79508972	1.0
77	0	1.409579992	0.1818799973	-4.110395432	0.6827289462	-98.1636734	1.0
[LeftShoulder]
73	0.3668199778	1.946700096	-0.02662999928	-16.04023743	-15.78930569	-3.081078053	1.0
74	0.3668199778	1.946700096	-0.02662999928	-16.55512238	-15.16981888	-0.2644717991	1.0
75	0.3668199778	1.946700096	-0.02662999928	-14.40508461	-15.60025311	-1.071197748	1.0
76	0.3668199778	1.946700096	-0.02662999928	-13.22873306	-15.37415886	-1.157784939	1.0
77	0.3668199778	1.946700096	-0.02662999928	-17.64410782	-14.68339729	0.7282986641	1.0
[LeftArm]
73	1.140689969	0	0	47.53113937	8.942625046	-72.35070038	1.0
74	1.140689969	0	0	48.5346489	7.826753616	-73.03340149	1.0
75	1.140689969	0	0	49.01089478	5.507590771	-71.24472809	1.0
76	1.140689969	0	0	48.90261078	4.726724148	-69.95654297	1.0
77	1.140689969	0	0	49.53099823	7.870369434	-71.80583191	1.0
[LeftForeArm]
73	2.749800205	0	0	-12.43608856	-37.97464752	11.67579365	1.0
74	2.749800205	0	0	-14.05746841	-47.43842697	14.5132246	1.0
75	2.749800205	0	0	-19.64006424	-57.49105072	15.545825	1.0
76	2.749800205	0	0	-26.44014549	-67.72221375	22.46536255	1.0
77	2.749800205	0	0	-34.46487808	-72.70748138	27.88627625	1.0
[LeftHand]
73	2.295179844	0	0	-7.016014576	-11.77489948	-13.42830563	1.0
74	2.295179844	0	0	-6.004750252	-13.40936852	-13.97304726	1.0
75	2.295179844	0	0	-10.4871254	-15.16554451	-4.432359219	1.0
76	2.295179844	0	0	-10.4485817	-15.16711807	-6.097169399	1.0
77	2.295179844	0	0	-2.658969879	-13.62769985	23.48138809	1.0
[RightShoulder]
73	-0.3601199985	1.946700096	-0.02662999928	-8.645814896	2.762904882	174.2066498	1.0
74	-0.3601199985	1.946700096	-0.02662999928	-7.1052742	2.371967554	173.9705811	1.0
75	-0.3601199985	1.946700096	-0.02662999928	-5.472568512	1.597025037	174.0597229	1.0
76	-0.3601199985	1.946700096	-0.02662999928	-3.617012739	1.467347264	174.5897522	1.0
77	-0.3601199985	1.946700096	-0.02662999928	-2.869380474	1.439276218	174.4361572	1.0
[RightArm]
73	-1.140689969	0	0	47.27697754	-1.157515407	-100.1285706	1.0
74	-1.140689969	0	0	38.21285629	-3.462547779	-102.9370956	1.0
75	-1.140689969	0	0	34.84288788	-5.942139626	-105.7043457	1.0
76	-1.140689969	0	0	31.96004677	-7.964193344	-108.6501846	1.0
77	-1.140689969	0	0	27.87396431	-9.984600067	-110.5671539	1.0
[RightForeArm]
73	-2.749800205	0	0	4.50451088	5.96358633	183.3109131	1.0
74	-2.749800205	0	0	7.242591858	6.858226299	186.0454254	1.0
75	-2.749800205	0	0	7.489547729	7.883794785	186.901062	1.0
76	-2.749800205	0	0	7.103053093	8.701050758	187.5110474	1.0
77	-2.749800205	0	0	9.353426933	8.34715271	188.9244537	1.0
[RightHand]
73	-2.295179844	0	0	4.157751083	3.44012928	174.1986694	1.0
74	-2.295179844	0	0	6.744280815	3.731620073	175.7590637	1.0
75	-2.295179844	0	0	6.880008698	4.648239136	176.745697	1.0
76	-2.295179844	0	0	6.402317524	5.545511723	177.3334656	1.0
77	-2.295179844	0	0	8.587627411	4.829379082	177.3097992	1.0
[LeftUpLeg]
73	0.9094099998	0	0	-29.29711723	-1.718698263	96.13946533	1.0
74	0.9094099998	0	0	-29.32747841	-1.475594997	95.73848724	1.0
75	0.9094099998	0	0	-26.70471954	-0.487408042	91.82194519	1.0
76	0.9094099998	0	0	-24.50436783	0.05671026185	90.33638	1.0
77	0.9094099998	0	0	-18.6049118	-5.267932415	98.25471497	1.0
[LeftLeg]
73	0	-4.498080254	0	72.5218811	8.163718224	90.4466095	1.0
74	0	-4.498080254	0	58.88500214	-0.5000324249	77.13215637	1.0
75	0	-4.498080254	0	42.59926987	8.041309357	93.35189819	1.0
76	0	-4.498080254	0	23.82754517	25.6198349	111.2685776	1.0
77	0	-4.498080254	0	1.137415648	-3.47451067	87.62540436	1.0
[LeftFoot]
73	0	-3.729400158	0	-86.84699249	98.65699005	-44.19233704	1.0
74	0	-3.729400158	0	-80.58158875	113.2392731	-35.20762634	1.0
75	0	-3.729400158	0	-47.64209747	90.33154297	-10.42388153	1.0
76	0	-3.729400158	0	8.304330826	46.47890472	34.09228897	1.0
77	0	-3.729400158	0	76.86963654	64.16544342	112.3161087	1.0
[LeftToeBase]
73	0	-0.5911099911	1.364109993	0	0	0	1.0
74	0	-0.5911099911	1.364109993	0	0	0	1.0
75	0	-0.5911099911	1.364109993	0	0	0	1.0
76	0	-0.5911099911	1.364109993	0	0	0	1.0
77	0	-0.5911099911	1.364109993	0	0	0	1.0
[RightUpLeg]
73	-0.9094099998	0	0	-8.430662155	-5.169909954	98.92984772	1.0
74	-0.9094099998	0	0	-1.813990355	-2.723793745	96.12622833	1.0
75	-0.9094099998	0	0	3.558422089	-2.491612196	93.92139435	1.0
76	-0.9094099998	0	0	7.831354141	-2.352330923	93.62582397	1.0
77	-0.9094099998	0	0	10.98507786	-2.203686476	93.92894745	1.0
[RightLeg]
73	0	-4.498080254	0	31.81053925	13.25644493	92.06874847	1.0
74	0	-4.498080254	0	20.45962143	-16.74578857	81.73288727	1.0
75	0	-4.498080254	0	13.73651314	-0.999045372	90.16854858	1.0
76	0	-4.498080254	0	8.388793945	6.32692337	92.66777039	1.0
77	0	-4.498080254	0	7.110557079	7.279231548	92.60140991	1.0
[RightFoot]
73	0	-3.729400158	0	7.933231831	53.97676468	66.70418549	1.0
74	0	-3.729400158	0	58.07464218	69.05059814	119.1904144	1.0
75	0	-3.729400158	0	29.45946503	61.73566055	85.63877106	1.0
76	0	-3.729400158	0	15.17446327	58.9876709	68.54222107	1.0
77	0	-3.729400158	0	15.10358429	57.81523514	71.35690308	1.0
[RightToeBase]
73	0	-0.5911099911	1.364109993	0	0	0	1.0
74	0	-0.5911099911	1.364109993	0	0	0	1.0
75	0	-0.5911099911	1.364109993	0	0	0	1.0
76	0	-0.5911099911	1.364109993	0	0	0	1.0
77	0	-0.5911099911	1.364109993	0	0	0	1.0
[EndOfFile]
